<?xml version="1.0" encoding="utf-8"?>
<!-- Generator: Adobe Illustrator 24.2.1, SVG Export Plug-In . SVG Version: 6.00 Build 0)  -->
<svg version="1.1" id="Layer_1" xmlns="http://www.w3.org/2000/svg" xmlns:xlink="http://www.w3.org/1999/xlink" x="0px" y="0px"
	 viewBox="0 0 146.3 37.6" style="enable-background:new 0 0 146.3 37.6;" xml:space="preserve">
<style type="text/css">
	.st0{fill:#FFFFFF;}
</style>
<g transform="translate(73.136 22.653)">
	<g transform="translate(-73.136 -22.653)">
		<g transform="translate(43.694 12.495)">
			<path class="st0" d="M26.2,16.7h-3.5c-0.4,0-0.7-0.3-0.7-0.7v0V-3.3c0-0.4,0.3-0.7,0.7-0.7l0,0h3.5c0.4,0,0.7,0.3,0.7,0.7
				c0,0,0,0,0,0v19.3C27,16.4,26.6,16.7,26.2,16.7L26.2,16.7z"/>
			<path class="st0" d="M53.8,11.2c0.4,0.2,0.5,0.7,0.3,1c0,0,0,0.1-0.1,0.1c-2.1,3-5.6,4.8-9.2,4.7c-6,0.2-11-4.4-11.2-10.4
				c0-0.2,0-0.3,0-0.5c0-6.1,4.7-10.6,11.2-10.6c3.6-0.1,7.1,1.6,9.3,4.5c0.3,0.3,0.2,0.8-0.1,1c0,0-0.1,0-0.1,0.1L51,2.8
				c-0.3,0.2-0.8,0.1-1-0.2c-2.1-2.8-6-3.4-8.8-1.3c-1.5,1.1-2.5,2.9-2.5,4.9c0,3.4,2.7,6.2,6,6.2c0,0,0.1,0,0.1,0
				c2,0.1,4-0.9,5.1-2.6c0.2-0.3,0.6-0.4,1-0.2L53.8,11.2z"/>
			<path class="st0" d="M77.1,0.6h-5.8c-0.4,0-0.7,0.3-0.7,0.7c0,0,0,0,0,0v14.6c0,0.4-0.3,0.7-0.7,0.7l0,0h-3.6
				c-0.4,0-0.7-0.3-0.7-0.7v0V1.3c0-0.4-0.3-0.7-0.7-0.7l0,0h-5.8c-0.4,0-0.7-0.3-0.7-0.7c0,0,0,0,0,0v-3.1c0-0.4,0.3-0.7,0.7-0.7
				l0,0h18.3c0.4,0,0.7,0.3,0.7,0.7c0,0,0,0,0,0v3.1C77.8,0.2,77.5,0.6,77.1,0.6z"/>
			<path class="st0" d="M14.1,0.6H8.3c-0.4,0-0.7,0.3-0.7,0.7v14.6c0,0.4-0.3,0.7-0.7,0.7H3.2c-0.4,0-0.7-0.3-0.7-0.7V1.3
				c0-0.4-0.3-0.7-0.7-0.7h-5.9c-0.4,0-0.7-0.3-0.7-0.7v-3.1c0-0.4,0.3-0.7,0.7-0.7h18.3c0.4,0,0.7,0.3,0.7,0.7v3.1
				C14.9,0.2,14.5,0.5,14.1,0.6z"/>
			<path class="st0" d="M102.6,6.3c0,5.9-4.8,10.7-10.7,10.7S81.1,12.2,81.1,6.3S85.9-4.4,91.8-4.4S102.6,0.4,102.6,6.3L102.6,6.3z
				 M85.7,6.3c0,3.4,2.7,6.1,6.1,6.1c3.4,0,6.1-2.7,6.1-6.1c0-3.4-2.7-6.1-6.1-6.1C88.4,0.2,85.7,2.9,85.7,6.3
				C85.7,6.3,85.7,6.3,85.7,6.3z"/>
		</g>
		<path class="st0" d="M30.4,5.2h-6.5c-0.4,0-0.7,0.1-1,0.2l-5.5,2c-0.5,0.2-1.1,0.3-1.7,0.3c-0.6,0-1.1-0.1-1.7-0.3l-5.5-2
			c-0.3-0.1-0.7-0.2-1-0.2H0l2,3.6l0,0C2.4,9.5,3,10,3.7,10.2l5.5,2c2,0.7,3.4,2.7,3.4,4.8v10l3.1,5.3l0,0l1.6-2.7l1.5-2.6V17
			c0-2.2,1.3-4.1,3.4-4.8l4.1-1.5l1.4-0.5l0.4-0.2c0.5-0.3,0.9-0.7,1.2-1.2l2.1-3.6L30.4,5.2z M28.5,8.5c-0.3,0.5-0.7,0.8-1.2,1
			l-5.5,2c-2.3,0.9-3.9,3.1-3.9,5.5v9.8l-2.3,4l0,0V11.2l14.5-5.5L28.5,8.5z"/>
	</g>
</g>
</svg>
